<mxfile host="app.diagrams.net" modified="2022-06-08T06:08:18.092Z" agent="5.0 (Windows)" etag="kHqYT9ziFxdBVy73RVKE" version="19.0.1" type="github">
  <diagram id="R2lEEEUBdFMjLlhIrx00" name="Page-1">
    <mxGraphModel dx="2062" dy="1140" grid="1" gridSize="10" guides="1" tooltips="1" connect="1" arrows="1" fold="1" page="1" pageScale="1" pageWidth="850" pageHeight="1100" math="0" shadow="0" extFonts="Permanent Marker^https://fonts.googleapis.com/css?family=Permanent+Marker">
      <root>
        <mxCell id="0" />
        <mxCell id="1" parent="0" />
        <mxCell id="uCP_6CUTZvWZAbhtNJwN-76" value="" style="edgeStyle=entityRelationEdgeStyle;startArrow=none;endArrow=none;segment=10;curved=1;rounded=1;sketch=1;" parent="1" source="uCP_6CUTZvWZAbhtNJwN-77" target="uCP_6CUTZvWZAbhtNJwN-78" edge="1">
          <mxGeometry relative="1" as="geometry" />
        </mxCell>
        <mxCell id="uCP_6CUTZvWZAbhtNJwN-77" value="To Do" style="ellipse;whiteSpace=wrap;html=1;align=center;treeFolding=1;treeMoving=1;newEdgeStyle={&quot;edgeStyle&quot;:&quot;entityRelationEdgeStyle&quot;,&quot;startArrow&quot;:&quot;none&quot;,&quot;endArrow&quot;:&quot;none&quot;,&quot;segment&quot;:10,&quot;curved&quot;:1};rounded=1;sketch=1;" parent="1" vertex="1">
          <mxGeometry x="480" y="300" width="100" height="40" as="geometry" />
        </mxCell>
        <mxCell id="uCP_6CUTZvWZAbhtNJwN-92" value="" style="edgeStyle=orthogonalEdgeStyle;curved=1;rounded=1;sketch=1;orthogonalLoop=1;jettySize=auto;html=1;" parent="1" source="uCP_6CUTZvWZAbhtNJwN-78" target="uCP_6CUTZvWZAbhtNJwN-91" edge="1">
          <mxGeometry relative="1" as="geometry" />
        </mxCell>
        <mxCell id="uCP_6CUTZvWZAbhtNJwN-93" value="" style="edgeStyle=orthogonalEdgeStyle;curved=1;rounded=1;sketch=1;orthogonalLoop=1;jettySize=auto;html=1;" parent="1" source="uCP_6CUTZvWZAbhtNJwN-78" target="uCP_6CUTZvWZAbhtNJwN-91" edge="1">
          <mxGeometry relative="1" as="geometry" />
        </mxCell>
        <mxCell id="uCP_6CUTZvWZAbhtNJwN-78" value="Fachgebietsarbeit" style="whiteSpace=wrap;html=1;rounded=1;arcSize=50;align=center;verticalAlign=middle;strokeWidth=1;autosize=1;spacing=4;treeFolding=1;treeMoving=1;newEdgeStyle={&quot;edgeStyle&quot;:&quot;entityRelationEdgeStyle&quot;,&quot;startArrow&quot;:&quot;none&quot;,&quot;endArrow&quot;:&quot;none&quot;,&quot;segment&quot;:10,&quot;curved&quot;:1};sketch=1;fillColor=#d5e8d4;strokeColor=#82b366;" parent="1" vertex="1">
          <mxGeometry x="290" y="250" width="140" height="30" as="geometry" />
        </mxCell>
        <mxCell id="uCP_6CUTZvWZAbhtNJwN-79" value="FGB Klausur" style="whiteSpace=wrap;html=1;rounded=1;arcSize=50;align=center;verticalAlign=middle;strokeWidth=1;autosize=1;spacing=4;treeFolding=1;treeMoving=1;newEdgeStyle={&quot;edgeStyle&quot;:&quot;entityRelationEdgeStyle&quot;,&quot;startArrow&quot;:&quot;none&quot;,&quot;endArrow&quot;:&quot;none&quot;,&quot;segment&quot;:10,&quot;curved&quot;:1};sketch=1;fillColor=#d5e8d4;strokeColor=#82b366;" parent="1" vertex="1">
          <mxGeometry x="205" y="350" width="110" height="30" as="geometry" />
        </mxCell>
        <mxCell id="uCP_6CUTZvWZAbhtNJwN-80" value="" style="edgeStyle=entityRelationEdgeStyle;startArrow=none;endArrow=none;segment=10;curved=1;rounded=1;sketch=1;exitX=0.443;exitY=1.067;exitDx=0;exitDy=0;exitPerimeter=0;" parent="1" source="uCP_6CUTZvWZAbhtNJwN-78" target="uCP_6CUTZvWZAbhtNJwN-79" edge="1">
          <mxGeometry relative="1" as="geometry">
            <mxPoint x="410" y="20" as="sourcePoint" />
            <mxPoint x="490" y="-25" as="targetPoint" />
          </mxGeometry>
        </mxCell>
        <mxCell id="uCP_6CUTZvWZAbhtNJwN-81" value="" style="edgeStyle=entityRelationEdgeStyle;startArrow=none;endArrow=none;segment=10;curved=1;rounded=1;sketch=1;" parent="1" source="uCP_6CUTZvWZAbhtNJwN-77" target="uCP_6CUTZvWZAbhtNJwN-82" edge="1">
          <mxGeometry relative="1" as="geometry">
            <mxPoint x="580" y="320" as="sourcePoint" />
          </mxGeometry>
        </mxCell>
        <mxCell id="uCP_6CUTZvWZAbhtNJwN-82" value="Facharzt" style="whiteSpace=wrap;html=1;rounded=1;arcSize=50;align=center;verticalAlign=middle;strokeWidth=1;autosize=1;spacing=4;treeFolding=1;treeMoving=1;newEdgeStyle={&quot;edgeStyle&quot;:&quot;entityRelationEdgeStyle&quot;,&quot;startArrow&quot;:&quot;none&quot;,&quot;endArrow&quot;:&quot;none&quot;,&quot;segment&quot;:10,&quot;curved&quot;:1};sketch=1;fillColor=#ffe6cc;strokeColor=#d79b00;" parent="1" vertex="1">
          <mxGeometry x="660" y="300" width="90" height="30" as="geometry" />
        </mxCell>
        <mxCell id="uCP_6CUTZvWZAbhtNJwN-83" value="" style="edgeStyle=entityRelationEdgeStyle;startArrow=none;endArrow=none;segment=10;curved=1;rounded=1;sketch=1;" parent="1" source="uCP_6CUTZvWZAbhtNJwN-82" target="uCP_6CUTZvWZAbhtNJwN-84" edge="1">
          <mxGeometry relative="1" as="geometry">
            <mxPoint x="580" y="320" as="sourcePoint" />
          </mxGeometry>
        </mxCell>
        <mxCell id="uCP_6CUTZvWZAbhtNJwN-84" value="Mit Schleicher sprechen" style="whiteSpace=wrap;html=1;rounded=1;arcSize=50;align=center;verticalAlign=middle;strokeWidth=1;autosize=1;spacing=4;treeFolding=1;treeMoving=1;newEdgeStyle={&quot;edgeStyle&quot;:&quot;entityRelationEdgeStyle&quot;,&quot;startArrow&quot;:&quot;none&quot;,&quot;endArrow&quot;:&quot;none&quot;,&quot;segment&quot;:10,&quot;curved&quot;:1};sketch=1;fillColor=#ffe6cc;strokeColor=#d79b00;" parent="1" vertex="1">
          <mxGeometry x="790" y="280" width="170" height="30" as="geometry" />
        </mxCell>
        <mxCell id="uCP_6CUTZvWZAbhtNJwN-85" value="" style="edgeStyle=entityRelationEdgeStyle;startArrow=none;endArrow=none;segment=10;curved=1;rounded=1;sketch=1;" parent="1" source="uCP_6CUTZvWZAbhtNJwN-82" target="uCP_6CUTZvWZAbhtNJwN-86" edge="1">
          <mxGeometry relative="1" as="geometry">
            <mxPoint x="750" y="315" as="sourcePoint" />
          </mxGeometry>
        </mxCell>
        <mxCell id="uCP_6CUTZvWZAbhtNJwN-86" value="Auf Michaela warten" style="whiteSpace=wrap;html=1;rounded=1;arcSize=50;align=center;verticalAlign=middle;strokeWidth=1;autosize=1;spacing=4;treeFolding=1;treeMoving=1;newEdgeStyle={&quot;edgeStyle&quot;:&quot;entityRelationEdgeStyle&quot;,&quot;startArrow&quot;:&quot;none&quot;,&quot;endArrow&quot;:&quot;none&quot;,&quot;segment&quot;:10,&quot;curved&quot;:1};sketch=1;fillColor=#ffe6cc;strokeColor=#d79b00;" parent="1" vertex="1">
          <mxGeometry x="800" y="320" width="150" height="30" as="geometry" />
        </mxCell>
        <mxCell id="uCP_6CUTZvWZAbhtNJwN-87" value="" style="edgeStyle=entityRelationEdgeStyle;startArrow=none;endArrow=none;segment=10;curved=1;rounded=1;sketch=1;" parent="1" source="uCP_6CUTZvWZAbhtNJwN-82" target="uCP_6CUTZvWZAbhtNJwN-88" edge="1">
          <mxGeometry relative="1" as="geometry">
            <mxPoint x="750" y="315" as="sourcePoint" />
          </mxGeometry>
        </mxCell>
        <mxCell id="uCP_6CUTZvWZAbhtNJwN-88" value="Weitere KrankenhÃ¤user suchen" style="whiteSpace=wrap;html=1;rounded=1;arcSize=50;align=center;verticalAlign=middle;strokeWidth=1;autosize=1;spacing=4;treeFolding=1;treeMoving=1;newEdgeStyle={&quot;edgeStyle&quot;:&quot;entityRelationEdgeStyle&quot;,&quot;startArrow&quot;:&quot;none&quot;,&quot;endArrow&quot;:&quot;none&quot;,&quot;segment&quot;:10,&quot;curved&quot;:1};sketch=1;fillColor=#ffe6cc;strokeColor=#d79b00;" parent="1" vertex="1">
          <mxGeometry x="770" y="240" width="210" height="30" as="geometry" />
        </mxCell>
        <mxCell id="uCP_6CUTZvWZAbhtNJwN-96" value="" style="edgeStyle=orthogonalEdgeStyle;curved=1;rounded=1;sketch=1;orthogonalLoop=1;jettySize=auto;html=1;exitX=0;exitY=0.5;exitDx=0;exitDy=0;" parent="1" source="uCP_6CUTZvWZAbhtNJwN-91" target="uCP_6CUTZvWZAbhtNJwN-94" edge="1">
          <mxGeometry relative="1" as="geometry" />
        </mxCell>
        <mxCell id="uCP_6CUTZvWZAbhtNJwN-98" value="" style="edgeStyle=orthogonalEdgeStyle;curved=1;rounded=1;sketch=1;orthogonalLoop=1;jettySize=auto;html=1;exitX=0.5;exitY=0;exitDx=0;exitDy=0;" parent="1" source="uCP_6CUTZvWZAbhtNJwN-91" target="uCP_6CUTZvWZAbhtNJwN-97" edge="1">
          <mxGeometry relative="1" as="geometry" />
        </mxCell>
        <mxCell id="uCP_6CUTZvWZAbhtNJwN-91" value="Confluence" style="whiteSpace=wrap;html=1;rounded=1;arcSize=50;align=center;verticalAlign=middle;strokeWidth=1;autosize=1;spacing=4;treeFolding=1;treeMoving=1;newEdgeStyle={&quot;edgeStyle&quot;:&quot;entityRelationEdgeStyle&quot;,&quot;startArrow&quot;:&quot;none&quot;,&quot;endArrow&quot;:&quot;none&quot;,&quot;segment&quot;:10,&quot;curved&quot;:1};sketch=1;fillColor=#d5e8d4;strokeColor=#82b366;" parent="1" vertex="1">
          <mxGeometry x="210" y="180" width="100" height="30" as="geometry" />
        </mxCell>
        <mxCell id="uCP_6CUTZvWZAbhtNJwN-94" value="Auf eigenen Bereich warten" style="whiteSpace=wrap;html=1;rounded=1;arcSize=50;align=center;verticalAlign=middle;strokeWidth=1;autosize=1;spacing=4;treeFolding=1;treeMoving=1;newEdgeStyle={&quot;edgeStyle&quot;:&quot;entityRelationEdgeStyle&quot;,&quot;startArrow&quot;:&quot;none&quot;,&quot;endArrow&quot;:&quot;none&quot;,&quot;segment&quot;:10,&quot;curved&quot;:1};sketch=1;fillColor=#d5e8d4;strokeColor=#82b366;" parent="1" vertex="1">
          <mxGeometry x="50" y="240" width="190" height="30" as="geometry" />
        </mxCell>
        <mxCell id="uCP_6CUTZvWZAbhtNJwN-97" value="Schulung organisieren" style="whiteSpace=wrap;html=1;rounded=1;arcSize=50;align=center;verticalAlign=middle;strokeWidth=1;autosize=1;spacing=4;treeFolding=1;treeMoving=1;newEdgeStyle={&quot;edgeStyle&quot;:&quot;entityRelationEdgeStyle&quot;,&quot;startArrow&quot;:&quot;none&quot;,&quot;endArrow&quot;:&quot;none&quot;,&quot;segment&quot;:10,&quot;curved&quot;:1};sketch=1;fillColor=#d5e8d4;strokeColor=#82b366;" parent="1" vertex="1">
          <mxGeometry x="170" y="60" width="170" height="30" as="geometry" />
        </mxCell>
      </root>
    </mxGraphModel>
  </diagram>
</mxfile>
